:FULLY-SPECIFIED
:FORCE-ALL-JOINTS-BE-3DOF
:DEGREES
2854
root -2.85685 15.0911 -29.5927 36.4396 -78.5578 -38.6987
lfemur -39.2663 26.632 -3.84111
ltibia 51.0249 -0 0
lfoot -1.03312 2.91144 -0.456493
ltoes -23.1582 0 0
rfemur -27.1427 -13.5861 18.5449
rtibia 67.3661 -0 0
rfoot -25.8242 -19.1924 0.00509
rtoes -14.8791 0 0
lowerback 13.0967 4.67347 0.359763
upperback -2.92516 6.46691 1.56478
thorax -10.5981 3.10473 -0.0750483
lowerneck -4.21508 5.65534 -0.617652
upperneck 8.9566 7.36993 2.56932
head 3.63675 3.72119 1.0631
lclavicle -1.81107e-15 -8.29755e-15 -2.86219e-30
lhumerus -7.55494 2.77079 83.6485
lradius 78.8832 -0 0
lwrist -19.2317 0 0
lhand -38.4865 29.339 0.031595
lfingers 7.12502 -0 0
lthumb -11.5074 58.9789 0.0345718
rclavicle -1.81107e-15 -8.29755e-15 -2.86219e-30
rhumerus -44.4382 40.0719 -94.7272
rradius 90.8882 -0 0
rwrist -59.742 0 0
rhand -3.14223 -29.7964 0.279044
rfingers 7.12502 -0 0
rthumb 22.5565 -58.2241 0.340472
2855
root -2.84698 15.0956 -29.6014 35.8515 -78.3941 -38.1046
lfemur -39.2061 26.5612 -3.83881
ltibia 50.9873 -0 0
lfoot -1.07213 2.93072 -0.458039
ltoes -23.1994 0 0
rfemur -27.1196 -13.5536 18.5415
rtibia 67.2948 -0 0
rfoot -25.791 -19.1922 0.00510722
rtoes -14.8865 0 0
lowerback 13.0795 4.66702 0.356435
upperback -2.9288 6.45767 1.56524
thorax -10.5922 3.10073 -0.0698493
lowerneck -4.22148 5.62997 -0.634716
upperneck 8.96591 7.33621 2.57897
head 3.6407 3.70439 1.06726
lclavicle -1.72877e-15 -8.24029e-15 -2.87185e-30
lhumerus -7.60839 2.74434 83.6601
lradius 78.7576 -0 0
lwrist -19.2326 0 0
lhand -38.4743 29.3433 0.0317017
lfingers 7.12502 -0 0
lthumb -11.4956 58.9837 0.0346886
rclavicle -1.72877e-15 -8.24029e-15 -2.87185e-30
rhumerus -44.3981 39.9939 -94.6777
rradius 90.7508 -0 0
rwrist -59.59 0 0
rhand -3.17848 -29.8091 0.279989
rfingers 7.12502 -0 0
rthumb 22.5216 -58.2402 0.341624
2856
root -2.83712 15.1 -29.61 35.2799 -78.2292 -37.5269
lfemur -39.146 26.4903 -3.83659
ltibia 50.9497 -0 0
lfoot -1.11114 2.95 -0.459573
ltoes -23.2407 0 0
rfemur -27.0965 -13.5211 18.5381
rtibia 67.2235 -0 0
rfoot -25.7578 -19.1919 0.0051243
rtoes -14.8939 0 0
lowerback 13.0622 4.66058 0.353109
upperback -2.93244 6.44842 1.56569
thorax -10.5862 3.09673 -0.0646506
lowerneck -4.22787 5.6046 -0.651777
upperneck 8.97521 7.30249 2.58862
head 3.64465 3.68759 1.07142
lclavicle -1.64647e-15 -8.18302e-15 -2.88143e-30
lhumerus -7.66185 2.71791 83.6716
lradius 78.632 -0 0
lwrist -19.2336 0 0
lhand -38.4621 29.3475 0.0318075
lfingers 7.12502 -0 0
lthumb -11.4839 58.9886 0.0348044
rclavicle -1.64647e-15 -8.18302e-15 -2.88143e-30
rhumerus -44.3581 39.9158 -94.6283
rradius 90.6134 -0 0
rwrist -59.4379 0 0
rhand -3.21473 -29.8218 0.280926
rfingers 7.12502 -0 0
rthumb 22.4868 -58.2563 0.342767
2857
root -2.82725 15.1045 -29.6187 34.7241 -78.0632 -36.9651
lfemur -39.0859 26.4195 -3.83446
ltibia 50.9121 -0 0
lfoot -1.15015 2.96928 -0.461093
ltoes -23.2819 0 0
rfemur -27.0734 -13.4885 18.5347
rtibia 67.1522 -0 0
rfoot -25.7246 -19.1917 0.00514123
rtoes -14.9013 0 0
lowerback 13.045 4.65413 0.349785
upperback -2.93609 6.43918 1.56615
thorax -10.5803 3.09273 -0.0594525
lowerneck -4.23425 5.57922 -0.668834
upperneck 8.98451 7.26876 2.59827
head 3.64859 3.6708 1.07557
lclavicle -1.56417e-15 -8.12576e-15 -2.89093e-30
lhumerus -7.71531 2.69149 83.6832
lradius 78.5064 -0 0
lwrist -19.2346 0 0
lhand -38.45 29.3518 0.0319124
lfingers 7.12502 -0 0
lthumb -11.4721 58.9934 0.0349192
rclavicle -1.56417e-15 -8.12576e-15 -2.89093e-30
rhumerus -44.3182 39.8377 -94.579
rradius 90.476 -0 0
rwrist -59.2858 0 0
rhand -3.25098 -29.8344 0.281854
rfingers 7.12502 -0 0
rthumb 22.4519 -58.2724 0.3439
2858
root -2.81739 15.109 -29.6274 34.1836 -77.8961 -36.4186
lfemur -39.0258 26.3486 -3.83241
ltibia 50.8746 -0 0
lfoot -1.18916 2.98857 -0.4626
ltoes -23.3232 0 0
rfemur -27.0503 -13.456 18.5313
rtibia 67.0809 -0 0
rfoot -25.6914 -19.1914 0.00515801
rtoes -14.9087 0 0
lowerback 13.0278 4.64768 0.346464
upperback -2.93973 6.42994 1.56661
thorax -10.5743 3.08873 -0.0542547
lowerneck -4.24063 5.55384 -0.685887
upperneck 8.9938 7.23503 2.6079
head 3.65254 3.654 1.07972
lclavicle -1.48187e-15 -8.0685e-15 -2.90035e-30
lhumerus -7.76877 2.66508 83.6948
lradius 78.3808 -0 0
lwrist -19.2355 0 0
lhand -38.4378 29.3561 0.0320164
lfingers 7.12502 -0 0
lthumb -11.4603 58.9983 0.0350329
rclavicle -1.48187e-15 -8.0685e-15 -2.90035e-30
rhumerus -44.2785 39.7596 -94.5298
rradius 90.3385 -0 0
rwrist -59.1337 0 0
rhand -3.28723 -29.8471 0.282775
rfingers 7.12502 -0 0
rthumb 22.4171 -58.2885 0.345023
2859
root -2.80752 15.1134 -29.6361 33.658 -77.728 -35.887
lfemur -38.9658 26.2778 -3.83045
ltibia 50.837 -0 0
lfoot -1.22817 3.00785 -0.464094
ltoes -23.3644 0 0
rfemur -27.0272 -13.4234 18.528
rtibia 67.0096 -0 0
rfoot -25.6582 -19.1912 0.00517464
rtoes -14.916 0 0
lowerback 13.0105 4.64123 0.343144
upperback -2.94338 6.4207 1.56707
thorax -10.5684 3.08473 -0.0490574
lowerneck -4.247 5.52846 -0.702937
upperneck 9.00308 7.2013 2.61753
head 3.65648 3.6372 1.08387
lclavicle -1.39957e-15 -8.01124e-15 -2.90969e-30
lhumerus -7.82224 2.63868 83.7064
lradius 78.2552 -0 0
lwrist -19.2365 0 0
lhand -38.4256 29.3603 0.0321194
lfingers 7.12502 -0 0
lthumb -11.4486 59.0031 0.0351457
rclavicle -1.39957e-15 -8.01124e-15 -2.90969e-30
rhumerus -44.2389 39.6815 -94.4808
rradius 90.2011 -0 0
rwrist -58.9817 0 0
rhand -3.32348 -29.8598 0.283688
rfingers 7.12502 -0 0
rthumb 22.3822 -58.3046 0.346137
